<?xml version="1.0" encoding="UTF-8"?>
<svg id="Layer_1" xmlns="http://www.w3.org/2000/svg" version="1.1" viewBox="0 0 2048 2048">
  <!-- Generator: Adobe Illustrator 29.6.1, SVG Export Plug-In . SVG Version: 2.1.1 Build 9)  -->
  <defs>
    <style>
      .st0 {
        fill: #caa45b;
      }

      .st1 {
        fill: #15150b;
      }
    </style>
  </defs>
  <path class="st1" d="M2047.87.13v2047.74H.13V.13h2047.74ZM674.04,1348.46v289.46c1.76.44,2-.74,3-1.5,6.57-4.97,13.62-11.53,20.01-16.99,74.89-64.04,148.6-129.48,223.66-193.33,82.48,11.28,166.18,5.39,249.27,6.84l-34-288.95-29.92,163.54-129.96.33-65.99-271.47c10.06-33,18.71-66.42,28.18-99.6.52-1.83,1.13-5.86,2.71-6.77l77.1,333.85,58.89.09c29.8-170.35,51.12-342.07,71.01-513.92l80.12,682.77,56.18-.82,1.4-2.76c26.47-191.19,51.44-382.59,78.25-573.72.29-2.1-.14-4.37.02-6.48l63.93,389.5,59.17-.14,60.89-279.38,26.98,76.56,57-15.57-57.48-177.99-61.88-.86-50.61,217.84-72.01-431.93-58.97,1-73.99,540.92c-1.21-15.14-2.41-30.37-4.02-45.48-24.67-231.41-53.32-462.42-78.1-693.83l-1.55-3.63c-6.98.97-14.17-.77-20.79-1-6.1-.22-19.75-.94-25.04.04-1.14.21-2.03.34-2.36,1.64-27.44,218.75-50.77,438.09-82.14,656.28l-71.11-299.83-35.98.46-72.38,228.38h-133.98c-.11,0-1.5-1.39-1.5-1.5v-57.49h97.49l70.59-228.87,106.84-.06,19.03,80.94,47.01-392.95c-64.69-4.76-128.74-2.2-192.17,11.31-263.72,56.18-501.16,303.59-455.46,587.83,23.73,147.63,125.64,265.37,252.68,337.25Z"/>
  <path class="st0" d="M674.04,1348.46c-127.04-71.88-228.94-189.62-252.68-337.25-45.69-284.24,191.74-531.65,455.46-587.83,63.43-13.51,127.48-16.07,192.17-11.31l-47.01,392.95-19.03-80.94-106.84.06-70.59,228.87h-97.49v57.49c0,.11,1.39,1.5,1.5,1.5h133.98l72.38-228.38,35.98-.46,71.11,299.83c31.36-218.19,54.7-437.53,82.14-656.28.33-1.3,1.23-1.43,2.36-1.64,5.29-.98,18.93-.26,25.04-.04,6.62.23,13.81,1.97,20.79,1l1.55,3.63c24.78,231.41,53.43,462.42,78.1,693.83,1.61,15.11,2.81,30.34,4.02,45.48l73.99-540.92,58.97-1,72.01,431.93,50.61-217.84,61.88.86,57.48,177.99-57,15.57-26.98-76.56-60.89,279.38-59.17.14-63.93-389.5c-.15,2.11.28,4.39-.02,6.48-26.8,191.13-51.77,382.53-78.25,573.72l-1.4,2.76-56.18.82-80.12-682.77c-19.89,171.85-41.21,343.58-71.01,513.92l-58.89-.09-77.1-333.85c-1.58.92-2.18,4.94-2.71,6.77-9.47,33.18-18.12,66.6-28.18,99.6l65.99,271.47,129.96-.33,29.92-163.54,34,288.95c-83.1-1.45-166.79,4.44-249.27-6.84-75.05,63.85-148.77,129.3-223.66,193.33-6.39,5.46-13.43,12.02-20.01,16.99-1,.76-1.25,1.94-3,1.5v-289.46Z"/>
</svg>